Coordinates
version=1
nRows=22
nColumns=24
inDegrees=yes

Units are S.I. units (second, meters, Newtons, ...)
Angles are in degrees.

endheader
time	pelvis_tilt	pelvis_list	pelvis_rotation	pelvis_tx	pelvis_ty	pelvis_tz	hip_flexion_r	hip_adduction_r	hip_rotation_r	knee_angle_r	ankle_angle_r	subtalar_angle_r	mtp_angle_r	hip_flexion_l	hip_adduction_l	hip_rotation_l	knee_angle_l	ankle_angle_l	subtalar_angle_l	mtp_angle_l	lumbar_extension	lumbar_bending	lumbar_rotation
      6.27000000	     59.80808427	     -1.55894268	     -4.90625735	      0.83206692	      1.06339449	     -0.22665564	     14.84261747	     -8.76756529	      9.75575031	    -70.82882038	     13.31842429	     26.78236053	      0.00000000	      9.80924895	     -5.20504074	     -8.15276326	    -66.10513763	      0.53492460	     -1.35525487	      0.00000000	      0.00000000	      0.00000000	      0.00000000
      6.28000000	     59.80870999	     -1.55800420	     -4.90564751	      0.83207391	      1.06339710	     -0.22666505	     14.84377004	     -8.75960501	      9.72880504	    -70.81115992	     13.31789862	     26.74698138	      0.00000000	      9.80711540	     -5.20811645	     -8.15579859	    -66.10276674	      0.53751042	     -1.35457480	      0.00000000	      0.00000000	      0.00000000	      0.00000000
      6.29000000	     59.80965783	     -1.55678499	     -4.90508345	      0.83207384	      1.06340162	     -0.22667516	     14.84536709	     -8.75227576	      9.69851984	    -70.79249074	     13.31256029	     26.70878178	      0.00000000	      9.80424421	     -5.21161594	     -8.16026569	    -66.09935162	      0.54156841	     -1.35275841	      0.00000000	      0.00000000	      0.00000000	      0.00000000
      6.30000000	     59.81088051	     -1.55498347	     -4.90485039	      0.83207078	      1.06340604	     -0.22668239	     14.84689716	     -8.74538729	      9.66613092	    -70.77295956	     13.30237419	     26.67385533	      0.00000000	      9.80089179	     -5.21413280	     -8.16511961	    -66.09552834	      0.54713716	     -1.35076066	      0.00000000	      0.00000000	      0.00000000	      0.00000000
      6.31000000	     59.81237747	     -1.55253249	     -4.90494563	      0.83207244	      1.06341066	     -0.22668458	     14.84782458	     -8.73904650	      9.63360518	    -70.75284554	     13.28859769	     26.64795999	      0.00000000	      9.79740192	     -5.21483069	     -8.16977595	    -66.09228054	      0.55402970	     -1.34990373	      0.00000000	      0.00000000	      0.00000000	      0.00000000
      6.32000000	     59.81417955	     -1.54974350	     -4.90519082	      0.83208080	      1.06341421	     -0.22668497	     14.84784438	     -8.73357764	      9.60308496	    -70.73234950	     13.27339326	     26.63528261	      0.00000000	      9.79413865	     -5.21360571	     -8.17407464	    -66.09046517	      0.56177394	     -1.35148112	      0.00000000	      0.00000000	      0.00000000	      0.00000000
      6.33000000	     59.81628399	     -1.54704185	     -4.90552790	      0.83208867	      1.06341435	     -0.22669011	     14.84704714	     -8.72913846	      9.57618978	    -70.71140655	     13.25913635	     26.63759036	      0.00000000	      9.79140636	     -5.21091056	     -8.17783749	    -66.09040989	      0.56961996	     -1.35637097	      0.00000000	      0.00000000	      0.00000000	      0.00000000
      6.34000000	     59.81864611	     -1.54455606	     -4.90611712	      0.83208882	      1.06340914	     -0.22670296	     14.84588018	     -8.72533656	      9.55347350	    -70.68970578	     13.24771160	     26.65391957	      0.00000000	      9.78941285	     -5.20741229	     -8.18055085	    -66.09171403	      0.57663082	     -1.36477888	      0.00000000	      0.00000000	      0.00000000	      0.00000000
      6.35000000	     59.82110603	     -1.54211088	     -4.90713146	      0.83208297	      1.06339776	     -0.22671778	     14.84487778	     -8.72120372	      9.53431396	    -70.66702793	     13.24010756	     26.68080614	      0.00000000	      9.78823918	     -5.20358095	     -8.18153853	    -66.09332515	      0.58185506	     -1.37617302	      0.00000000	      0.00000000	      0.00000000	      0.00000000
      6.36000000	     59.82327736	     -1.53966063	     -4.90852949	      0.83207681	      1.06338400	     -0.22672504	     14.84431724	     -8.71571606	      9.51733205	    -70.64371229	     13.23641994	     26.71302582	      0.00000000	      9.78782783	     -5.19953478	     -8.18039106	    -66.09392030	      0.58456545	     -1.38941693	      0.00000000	      0.00000000	      0.00000000	      0.00000000
      6.37000000	     59.82461067	     -1.53762924	     -4.90998226	      0.83206944	      1.06337554	     -0.22672003	     14.84410184	     -8.70851558	      9.50106523	    -70.62075869	     13.23609819	     26.74478238	      0.00000000	      9.78798720	     -5.19529203	     -8.17728642	    -66.09252236	      0.58451369	     -1.40305731	      0.00000000	      0.00000000	      0.00000000	      0.00000000
      6.38000000	     59.82475896	     -1.53665677	     -4.91093572	      0.83205592	      1.06337834	     -0.22670576	     14.84403382	     -8.70018052	      9.48443899	    -70.59931036	     13.23819189	     26.77113409	      0.00000000	      9.78840449	     -5.19116676	     -8.17307710	    -66.08906498	      0.58210031	     -1.41567262	      0.00000000	      0.00000000	      0.00000000	      0.00000000
      6.39000000	     59.82393389	     -1.53694858	     -4.91084063	      0.83203960	      1.06339042	     -0.22669183	     14.84410890	     -8.69179809	      9.46684166	    -70.58000144	     13.24150807	     26.78924414	      0.00000000	      9.78875295	     -5.18787547	     -8.16913211	    -66.08446202	      0.57835204	     -1.42616534	      0.00000000	      0.00000000	      0.00000000	      0.00000000
      6.40000000	     59.82279435	     -1.53800864	     -4.90953909	      0.83202899	      1.06340263	     -0.22668918	     14.84442858	     -8.68432019	      9.44807733	    -70.56285262	     13.24478610	     26.79895751	      0.00000000	      9.78886291	     -5.18617791	     -8.16681332	    -66.08011240	      0.57467297	     -1.43393332	      0.00000000	      0.00000000	      0.00000000	      0.00000000
      6.41000000	     59.82206373	     -1.53907627	     -4.90748595	      0.83202448	      1.06340868	     -0.22670116	     14.84498235	     -8.67820834	      9.42846607	    -70.54766128	     13.24697311	     26.80247530	      0.00000000	      9.78877293	     -5.18629927	     -8.16676228	    -66.07721241	      0.57244120	     -1.43890224	      0.00000000	      0.00000000	      0.00000000	      0.00000000
      6.42000000	     59.82226099	     -1.53971105	     -4.90549616	      0.83202101	      1.06340837	     -0.22671982	     14.84561666	     -8.67337718	      9.40889653	    -70.53435695	     13.24748904	     26.80335759	      0.00000000	      9.78858494	     -5.18758766	     -8.16864591	    -66.07625505	      0.57259036	     -1.44140402	      0.00000000	      0.00000000	      0.00000000	      0.00000000
      6.43000000	     59.82355280	     -1.53991550	     -4.90419739	      0.83201786	      1.06340244	     -0.22673344	     14.84614353	     -8.66939762	      9.39060595	    -70.52306830	     13.24633926	     26.80528320	      0.00000000	      9.78826040	     -5.18885879	     -8.17156338	    -66.07692941	      0.57533597	     -1.44195652	      0.00000000	      0.00000000	      0.00000000	      0.00000000
      6.44000000	     59.82569999	     -1.53982813	     -4.90367230	      0.83201692	      1.06339181	     -0.22673847	     14.84645359	     -8.66586072	      9.37474336	    -70.51395363	     13.24403943	     26.81095632	      0.00000000	      9.78758910	     -5.18925543	     -8.17466083	    -66.07839698	      0.58015849	     -1.44106100	      0.00000000	      0.00000000	      0.00000000	      0.00000000
      6.45000000	     59.82813259	     -1.53953677	     -4.90354813	      0.83201545	      1.06338130	     -0.22674050	     14.84653258	     -8.66263826	      9.36193292	    -70.50701827	     13.24138650	     26.82144483	      0.00000000	      9.78637137	     -5.18874883	     -8.17753505	    -66.07974596	      0.58602492	     -1.43907600	      0.00000000	      0.00000000	      0.00000000	      0.00000000
      6.46000000	     59.83016711	     -1.53912671	     -4.90340308	      0.83200953	      1.06337855	     -0.22674485	     14.84638136	     -8.65986929	      9.35204310	    -70.50215611	     13.23915703	     26.83607053	      0.00000000	      9.78461779	     -5.18793428	     -8.18026503	    -66.08038678	      0.59172934	     -1.43617296	      0.00000000	      0.00000000	      0.00000000	      0.00000000
      6.47000000	     59.83131722	     -1.53865711	     -4.90310919	      0.83200265	      1.06338626	     -0.22675078	     14.84601097	     -8.65772166	      9.34423547	    -70.49932433	     13.23785599	     26.85279302	      0.00000000	      9.78255153	     -5.18754155	     -8.18317117	    -66.08024735	      0.59622154	     -1.43237742	      0.00000000	      0.00000000	      0.00000000	      0.00000000
      6.48000000	     59.83153970	     -1.53814729	     -4.90279732	      0.83200266	      1.06339834	     -0.22675386	     14.84558928	     -8.65621212	      9.33731581	    -70.49858769	     13.23762850	     26.86889330	      0.00000000	      9.78043315	     -5.18804725	     -8.18656540	    -66.07971972	      0.59884258	     -1.42768760	      0.00000000	      0.00000000	      0.00000000	      0.00000000
